<?xml version="1.0" encoding="UTF-8"?> <svg xmlns="http://www.w3.org/2000/svg" width="160" height="34"><path d="M56.477 19.583l-.954 2.688h-.08a19.021 19.021 0 00-.926-2.635L49.404 6.853h-5.007v20.373h3.312V14.654c0-.79 0-1.687-.027-2.794-.026-.553-.08-.975-.106-1.291h.08c.159.79.344 1.37.476 1.74l6.146 14.865h2.331l6.093-14.997c.132-.343.265-1.028.397-1.608h.08c-.08 1.502-.133 2.847-.16 3.664v12.914h3.524V6.8h-4.821l-5.245 12.783zm13.404-7.037h3.444v14.601H69.88V12.546zm1.748-6.168c-.583 0-1.06.211-1.457.58a1.87 1.87 0 00-.61 1.423c0 .554.213 1.028.61 1.397.398.37.874.554 1.457.554.583 0 1.086-.211 1.457-.554a1.85 1.85 0 00.61-1.397c0-.553-.213-1.028-.61-1.423-.344-.369-.848-.58-1.457-.58zm13.907 6.036a9.652 9.652 0 00-1.933-.21c-1.563 0-2.994.342-4.186 1.027-1.192.685-2.145 1.634-2.755 2.82-.636 1.213-.953 2.61-.953 4.217 0 1.397.317 2.636.927 3.77.609 1.106 1.457 2.002 2.596 2.609 1.086.606 2.357.922 3.788.922 1.642 0 3.046-.343 4.159-.975l.026-.027v-3.162l-.132.105a5.93 5.93 0 01-1.669.87c-.61.21-1.166.316-1.642.316-1.378 0-2.464-.395-3.232-1.265-.795-.843-1.192-2.003-1.192-3.453 0-1.502.397-2.688 1.218-3.558.821-.87 1.908-1.318 3.232-1.318 1.113 0 2.252.37 3.285 1.107l.132.106v-3.348l-.026-.026c-.45-.184-.954-.395-1.643-.527zm11.365-.105a3.64 3.64 0 00-2.331.817c-.583.474-.98 1.16-1.325 1.976h-.026v-2.556h-3.444v14.601h3.444v-7.459c0-1.265.264-2.319.847-3.083.583-.791 1.325-1.186 2.225-1.186.318 0 .636.079 1.034.131.37.106.635.211.82.343l.133.105v-3.426l-.08-.026c-.238-.158-.715-.237-1.297-.237zm9.377-.08c-2.41 0-4.344.712-5.695 2.109-1.378 1.397-2.04 3.32-2.04 5.746 0 2.266.689 4.111 2.013 5.456 1.325 1.317 3.126 2.003 5.378 2.003 2.357 0 4.238-.712 5.59-2.135 1.377-1.424 2.039-3.321 2.039-5.667 0-2.32-.636-4.164-1.934-5.508-1.245-1.345-3.073-2.004-5.35-2.004zm2.755 11.228c-.636.817-1.642 1.213-2.887 1.213s-2.252-.396-2.967-1.265c-.715-.817-1.06-2.003-1.06-3.506 0-1.555.371-2.74 1.06-3.584.715-.844 1.695-1.265 2.94-1.265 1.219 0 2.172.395 2.861 1.212.689.817 1.06 2.003 1.06 3.558-.053 1.582-.345 2.82-1.007 3.637zm12.212-4.85c-1.086-.447-1.775-.79-2.093-1.08-.265-.263-.397-.632-.397-1.107 0-.395.159-.79.556-1.054.398-.264.848-.395 1.51-.395.583 0 1.192.105 1.775.263.583.158 1.113.395 1.536.712l.133.105v-3.215l-.08-.027a9.595 9.595 0 00-1.562-.448 10.672 10.672 0 00-1.696-.158c-1.642 0-2.993.395-4.053 1.265-1.06.817-1.563 1.924-1.563 3.216 0 .685.106 1.291.345 1.792.238.5.582.975 1.06 1.37.476.37 1.165.791 2.118 1.187.795.342 1.404.606 1.775.817.371.21.61.448.795.632.132.211.212.475.212.817 0 .975-.742 1.45-2.252 1.45-.583 0-1.192-.106-1.907-.343a7.384 7.384 0 01-1.934-.975l-.132-.105v3.347l.08.026c.503.237 1.112.396 1.854.58.741.132 1.403.237 1.986.237 1.775 0 3.232-.395 4.265-1.265 1.06-.843 1.616-1.924 1.616-3.32 0-.976-.265-1.846-.848-2.505a10.752 10.752 0 00-3.099-1.818zm13.033-6.378c-2.41 0-4.344.712-5.695 2.109s-2.04 3.32-2.04 5.746c0 2.266.689 4.111 2.013 5.456 1.325 1.317 3.126 2.003 5.378 2.003 2.357 0 4.238-.712 5.59-2.135 1.377-1.424 2.039-3.321 2.039-5.667 0-2.32-.636-4.164-1.934-5.508-1.245-1.345-3.073-2.004-5.35-2.004zm2.729 11.228c-.636.817-1.643 1.213-2.888 1.213-1.271 0-2.251-.396-2.967-1.265-.715-.817-1.06-2.003-1.06-3.506 0-1.555.372-2.74 1.06-3.584.716-.844 1.696-1.265 2.94-1.265 1.193 0 2.173.395 2.862 1.212.688.817 1.06 2.003 1.06 3.558 0 1.582-.345 2.82-1.007 3.637zm22.967-8.091v-2.82h-3.47V8.223l-.107.027-3.284.975-.08.026v3.295h-5.192V10.7c0-.844.212-1.503.583-1.924.37-.422.927-.633 1.616-.633.477 0 .98.106 1.536.343l.133.079V5.588l-.08-.027c-.477-.158-1.112-.263-1.934-.263a6.23 6.23 0 00-2.755.632 4.583 4.583 0 00-1.88 1.872c-.45.79-.69 1.686-.69 2.714v2.03h-2.41v2.794h2.41v11.807h3.471V15.366h5.192v7.512c0 3.083 1.457 4.638 4.371 4.638.477 0 .98-.079 1.457-.158.503-.105.874-.237 1.086-.342l.027-.027v-2.82l-.133.105a2.244 2.244 0 01-.715.317 2.436 2.436 0 01-.689.105c-.689 0-1.165-.158-1.51-.553-.318-.37-.477-.976-.477-1.872v-6.905h3.524zM0 0h16.238v16.157H0zm17.934 0h16.238v16.157H17.934zM0 17.843h16.238V34H0zm17.934 0h16.238V34H17.934z"></path></svg> 