<?xml version="1.0" encoding="UTF-8"?> <svg xmlns="http://www.w3.org/2000/svg" width="50" height="39"><path d="M4.816.242c-.32.048-.629 1.23-1.248 1.847-.453.444-1.018.417-1.318.966-.115.205-.078.556-.206.891C1.79 4.62.9 4.68.9 5.413c-.003.792.74.942 1.387 1.505.504.451.552.763 1.162.983.522.177 1.297-.402 1.995-.194.572.17 1.12.293 1.25.883.114.544-.008 1.386-.703 1.289-.234-.027-1.25-.369-2.496-.236-1.506.172-3.223.663-3.391 2.345-.093.94 1.068 2.047 2.188 1.822.774-.152.408-1.068.829-1.512.553-.57 3.687 1.988 6.599 1.988 1.226 0 2.138-.31 3.044-1.26.085-.074.188-.229.319-.24.123.011.339.133.41.184 2.344 1.89 4.118 5.679 12.74 5.722 1.212.008 2.592.588 3.72 1.618 1.007.932 1.594 2.383 2.166 3.853.864 2.207 2.409 4.354 4.753 6.742.128.128 2.059 1.632 2.213 1.743.024.018.166.357.117.546-.057 1.433-.265 5.598 2.834 5.787.757.038.56-.496.56-.863-.003-.726-.135-1.446.247-2.19.521-1.021-1.107-1.491-1.06-3.7.034-1.647-1.347-1.366-2.046-2.62-.404-.728-.763-1.113-.737-2.002.157-5.003-1.063-8.291-1.671-9.099-.475-.609-.868-.85-.434-1.132 2.587-1.713 3.173-3.305 3.173-3.305 1.376-3.24 2.613-6.198 4.319-7.5.343-.27 1.224-.93 1.764-1.187 1.592-.752 2.43-1.209 2.892-1.659.73-.713 1.31-2.203.608-3.106-.872-1.114-2.38-.23-3.044.165-4.756 2.828-5.456 7.815-7.103 10.68-1.314 2.288-3.45 3.97-5.362 4.107-1.43.106-2.975-.184-4.512-.86-3.738-1.642-5.783-3.762-6.267-4.137-1.004-.777-8.8-8.446-15.117-8.76 0 0-.784-1.573-.981-1.598-.462-.06-.935.939-1.274 1.056-.319.105-.855-1.082-1.176-1.029"></path></svg> 