<?xml version="1.0" encoding="UTF-8"?> <svg xmlns="http://www.w3.org/2000/svg" width="178" height="34"><path d="M175.532 25.99v-.49h.315c.177 0 .413.014.413.223 0 .226-.137.268-.334.268h-.394zm0 .345h.217l.472.857h.532l-.532-.892c.276-.02.512-.154.512-.53 0-.467-.315-.617-.866-.617h-.787v2.04h.452v-.858zm2.283-.16c0-1.197-.925-1.892-1.968-1.892s-1.968.695-1.968 1.893c0 1.197.925 1.895 1.968 1.895s1.968-.698 1.968-1.895zm-.55 0c0 .873-.65 1.458-1.418 1.458v-.005c-.767.005-1.397-.58-1.397-1.452 0-.873.63-1.456 1.397-1.456.768 0 1.417.583 1.417 1.456zM105.679 5.906l.002 21.495h6.065V5.906h-6.067zm-47.712-.03v21.525h6.119V11.057l4.741.002c1.57 0 2.688.392 3.446 1.2.958 1.022 1.35 2.673 1.35 5.69v9.452h5.928V15.509c0-8.488-5.404-9.632-10.693-9.632h-10.89zm57.477.032v21.493h9.836c5.241 0 6.951-.873 8.803-2.829 1.307-1.373 2.151-4.386 2.151-7.682 0-3.02-.714-5.716-1.962-7.395-2.247-3.002-5.485-3.587-10.316-3.587h-8.512zm6.016 4.679h2.608c3.783 0 6.229 1.702 6.229 6.112 0 4.414-2.446 6.114-6.229 6.114h-2.608V10.587zM96.935 5.908l-5.062 17.033-4.851-17.033h-6.546L87.4 27.401h8.742l6.981-21.493h-6.19zm42.122 21.493h6.065V5.908h-6.065v21.493zm17.002-21.487l-8.469 21.48h5.98l1.341-3.797h10.014l1.279 3.796h6.494l-8.541-21.479h-8.098zm3.938 3.92l3.668 10.062h-7.459l3.79-10.062zm-140.872.296V7.063c.297-.021.597-.037.903-.047 8.38-.263 13.876 7.207 13.876 7.207s-5.937 8.254-12.303 8.254a7.72 7.72 0 01-2.476-.397v-9.298c3.262.394 3.917 1.836 5.878 5.108l4.362-3.68s-3.184-4.18-8.55-4.18c-.585 0-1.143.04-1.69.1zm0-10.13v4.58c.3-.024.602-.042.903-.053 11.653-.393 19.244 9.564 19.244 9.564s-8.72 10.613-17.804 10.613c-.832 0-1.612-.077-2.343-.207v2.832c.625.08 1.275.126 1.951.126 8.454 0 14.567-4.32 20.488-9.435.98.787 4.999 2.7 5.826 3.539-5.63 4.716-18.747 8.518-26.184 8.518-.716 0-1.406-.043-2.081-.109v3.98h32.13V0h-32.13zm0 22.08v2.417c-7.82-1.394-9.99-9.53-9.99-9.53s3.755-4.163 9.99-4.837v2.652l-.013-.001c-3.271-.393-5.828 2.666-5.828 2.666s1.432 5.151 5.84 6.633zM5.237 14.615s4.634-6.844 13.888-7.552V4.581C8.875 5.403 0 14.09 0 14.09s5.027 14.546 19.125 15.877V27.33C8.779 26.026 5.237 14.615 5.237 14.615z"></path></svg> 