<?xml version="1.0" encoding="UTF-8"?> <svg xmlns="http://www.w3.org/2000/svg" version="1.0" width="1706.667" height="462.667" viewBox="0 0 1280 347"><path d="M959.5 7.9c-7.2 1.8-13 6.4-16.7 13.2l-2.3 4.4v300l2.2 4c2.8 5.2 6.8 8.9 12.3 11.4 4.5 2 5.8 2.1 152.5 2.1h148l5-2.4c5.4-2.5 9.8-7 12.4-12.6 1.4-3.2 1.6-18.1 1.6-153V25.5l-2.2-4.1c-1.2-2.2-4-5.7-6.2-7.7-7.9-7.1 1.8-6.7-159-6.6-79.5.1-145.9.4-147.6.8zm71.2 58.9c12.9 6.7 18.1 22.2 11.7 35-4.8 9.6-13.8 14.5-26.4 14.4-12.9 0-23.2-7.4-26.5-18.7-4.3-14.5 3.2-27.6 18.5-32.6 4.7-1.6 18.1-.4 22.7 1.9zm152.3 68.8c20.5 6.1 33.1 20.7 38.5 44.5 1.5 6.3 1.8 15.1 2.2 57.6l.5 50.3h-51.1l-.3-46.3c-.3-41.8-.6-46.7-2.2-51.4-4-11.2-11.6-16.7-23.1-16.7-5.9 0-7.9.4-12.3 2.9-5.7 3.1-10.2 8-13 14.2-1.5 3.4-1.7 8.7-2 50.5l-.3 46.8h-50.4V137h50.5v20.5l2.7-3.5c7.7-10.1 20.2-18 31.3-19.9 7.4-1.3 22.2-.5 29 1.5zm-141 76.9V288h-51V137h51v75.5zM183 64.9c-12.9 4.2-18.9 12.4-19 25.7 0 12.8 6.5 21.5 18.9 25.1 6.4 1.8 16.5 1.3 22.3-1.1 19.8-8.4 21.4-36.9 2.6-47.1-4.5-2.5-6.6-2.9-13.8-3.2-4.7-.1-9.6.1-11 .6zM7 178.5V289h140v-47H59V68H7v110.5zm408 0V289h51v-49.5l5.7-7.2c3.4-4.3 6.1-6.9 6.7-6.3.4.4 9.3 14.7 19.6 31.7l18.7 30.8 31.7.3c17.4.1 31.6 0 31.6-.2s-14.9-21.5-33-47.2c-32.1-45.4-33-46.8-31.3-48.7 1-1.1 13.8-15.3 28.6-31.5 14.7-16.3 26.7-29.9 26.7-30.4 0-.4-13.8-.7-30.7-.6l-30.6.3-15.4 21.5c-8.5 11.8-18.3 25.8-21.9 30.9l-6.4 9.5V68h-51v110.5zm424-72.9v37.6l-3.7-3.7c-4.8-4.6-13.5-9.1-21.5-11-9.1-2.1-25.8-1.9-35 .4-37.1 9.5-59.1 46.5-54.8 91.9 1.3 14 3.2 20.9 9.2 33.1 4.3 9.1 6.2 11.6 13.7 19.1 13.7 13.6 26.8 19 46.6 19 11.6 0 19-1.6 29-6.4 7.8-3.7 14.3-8.9 18.6-14.9 3.4-4.7 3.5-4.4 4.4 8.5l.7 9.8h46.1l-.7-7.7c-.3-4.2-.6-53.9-.6-110.5V68h-52v37.6zm-16.3 63c6.2 3 10.7 7.9 14 15.1 2.4 5.2 2.4 5.9 2.1 26-.3 23.3-1.1 26.1-8.4 33.7-6.3 6.5-10.6 8.1-21.4 8.1-10.2 0-12.8-.9-20-6.5-13.9-11.1-17.7-41.9-7.5-62 7.9-15.6 25.8-21.9 41.2-14.4z"></path><path d="M630.3 127c-17.7 2.2-31.9 9.3-44.9 22.4-7.9 8-9.8 10.6-14.2 19.6-7.8 15.9-9.7 24.2-9.6 43 .1 18.1 1.9 26.3 8.5 39.7 9.3 18.8 26.3 31.4 50.7 37.6 11.8 2.9 43.3 3.1 58.7.3 10.1-1.8 25.3-6.1 26.8-7.6.7-.6-4.9-32.6-5.9-33.8-.1-.2-2.6.3-5.6 1.1-17.8 5.2-44.2 6.7-56.7 3.3-15.2-4.1-24.7-12.7-27.5-24.7l-.6-2.6 52 .5c50.3.5 52 .4 52.7-1.4.5-1 .8-9.3.8-18.4 0-13.6-.4-18-2.2-25.2-8.7-34.2-31-52.6-65.6-54.2-5.6-.3-13.5-.1-17.4.4zm24.1 36.4c7.8 4.5 13.6 15 13.6 24.3v3.3h-58.2l.6-3.5c1.7-9 7.9-18.8 14.6-23 5.6-3.5 9.7-4.5 17.6-4.1 5.6.2 8.2.9 11.8 3zm-331.3-28.8c-10 2.1-16.8 5.9-24.3 13.6L292 155v-18h-51.8l-.1 76-.1 76h51.9l.3-48.4.3-48.4 4-5.8c5.4-7.9 11.7-11.7 20.1-12.2 8.6-.6 14.2 1.6 19.2 7.3 7.3 8.3 7.5 10 7.9 61.7l.5 45.8h50.9l-.4-51.8c-.4-58-.5-59.1-7.7-74-7.4-15.5-20.4-25.5-37.3-28.7-9.6-1.8-18.1-1.8-26.6.1zM167 213v76h51V137h-51v76z"></path></svg> 