<?xml version="1.0" encoding="UTF-8"?> <svg xmlns="http://www.w3.org/2000/svg" version="1.0" width="2666.667" height="1000" viewBox="0 0 2000 750"><path d="M452.7 80.1C391.1 90.9 342.1 139.8 325 207.6c-5.2 20.5-6.4 30.9-6.5 53.9 0 11.5.4 23 .8 25.4l.8 4.4-6.5-7c-18.3-19.7-46.6-31.3-87.1-35.6-11-1.2-11.6-1.4-7.5-2.1 8.3-1.5 27.9-8.4 36.9-13.1 17.2-8.9 28.9-19.7 36-33.4 5.8-11.2 7.4-18.4 7.5-32.6 0-21.2-5.9-36.1-19.9-50-15.6-15.5-38.5-25.2-70.7-30.1-10-1.6-20.9-1.8-93.6-1.8l-82.3-.1.3 5 .3 5 11.6 1.1c18 1.8 24 4.5 28.2 12.9 4.2 8.5 4.2 8.6 4.2 151.5 0 128-.1 136.9-1.8 143.5-2.3 9.1-5.1 13-11.2 16-5.1 2.5-15.3 4.4-23.7 4.5-7.1 0-7.8.5-7.8 6v4.8l88.6.1c96.2.1 100.2-.1 122.4-5.5 26.6-6.6 46.4-16.9 62.8-32.8 13.9-13.5 21.4-26.8 24.9-44.4l1.9-9.1 3.9 8.1c23.1 48.2 69.6 81.3 125.5 89.2 45.4 6.4 83.3-1.4 116.4-23.8l9.3-6.3 2.3 13.1c1.2 7.2 2.7 13.7 3.2 14.3.6.7 2.8 1.3 4.9 1.3h3.9v-20.8c0-11.4.3-33.2.7-48.5l.6-27.7 4.2 8.7c22 46.2 63.1 78.2 113.6 88.3 15.5 3.1 35.5 4.3 49.2 3.1 28.2-2.7 44.1-8.5 77.6-28.5 15.8-9.4 22.9-12.5 30.9-13.3 2.9-.3 5.5-1 5.9-1.6.3-.5.5-20.1.4-43.6-.2-48.5.2-52 6.3-57.8 3.9-3.6 8-4.9 18.1-5.9 7.9-.7 9.5-1.9 9.5-7.3v-3.6h-73l-73-.1v4.2c0 2.3.6 4.6 1.3 5.1.6.6 8.2 1.5 16.7 2.1 23.1 1.7 30.4 4.5 34.9 13.5 2.1 4.3 2.5 6.9 3.3 24 1.2 24.4.4 50.4-1.7 58.9-3.7 14.3-13.1 25.7-26.8 32.2-10.5 5.1-18.2 6.7-35.2 7.3-12.5.4-16.6.2-24.5-1.5-18.9-3.9-34-12.2-47.2-26-8.8-9.2-13.9-16.5-19.8-28.1-15.9-31.7-23.1-72-21.7-121.6 3-102.1 37.6-156.1 102.2-159.2 34.5-1.6 64.5 13.4 81.2 40.6 8.2 13.2 11.4 23.6 15 48.1l.8 5.5 4.8.3 4.7.3v-35.8c0-19.7-.3-43.6-.7-53.1l-.6-17.2h-3.1c-1.7 0-3.7.4-4.4.8-.7.5-2.1 5.8-3.2 11.8-1.1 6-2.3 11.9-2.5 13.1-.5 2.1-1 1.9-7.8-3.3-13.6-10.3-33.3-18.7-53.7-23.1-12.2-2.6-48.6-2.6-61.5 0-21.1 4.3-42.7 13.4-59.6 25.2-13.1 9.1-32.1 28.8-41.1 42.5-16.1 24.4-25.5 48-30.9 78-4 21.9-3.7 60.3.6 80.8 1 4.8 1.1 9.3.4 18-4.2 54.4-25.7 87-65.4 99.5-12.2 3.8-22.8 5-38.9 4.4-27.9-1.1-48.2-10-66.6-29.3-21-22-34.1-54.4-39.4-96.9-5.4-43.6-1.3-98.9 9.9-134.4 16.5-52.1 51.1-78.6 98.8-75.8 13.6.8 24.1 3.6 36.2 9.7 23 11.6 37.9 30.5 44.4 56.4 1 4.1 2.2 7.9 2.5 8.5.4.6 2.8 1.1 5.3 1.1h4.6l-.6-19.7c-.4-10.8-.7-30.3-.7-43.5V81h-3.3c-5.6 0-6.4 1.4-8.8 15.2l-2.2 12.7-4.6-3.8c-14.7-12.2-35.7-21.3-57.9-25.2-15.3-2.6-39.3-2.5-54.5.2zm-258.6 21.8c18.8 4.9 33.1 16.2 40.7 32.1 6.3 13.3 7.6 19.9 7.6 38.5 0 13.7-.3 17.2-2.2 24-7.5 26.2-25.1 40.5-56.7 46-4.9.9-17.9 1.8-28.7 2.2l-19.8.6v-71.6c0-56.2.3-71.8 1.3-72.4 1.9-1.3 18.8-2.1 35.2-1.8 11 .3 17 .9 22.6 2.4zM190.5 260c28.9 3.8 52.6 14.4 65.4 29.1 5.1 6 10 14.9 12.8 23.4 3.5 10.8 4.4 33.4 1.8 47-6.4 34.1-28.6 55.2-64.3 61.1-7.2 1.2-13.8 1.5-25.7 1.1-24.3-.8-33.3-4.5-38.9-16-5.8-11.7-5.9-13.5-6.3-83.6l-.4-64.4 23.3.6c12.8.3 27.4 1.1 32.3 1.7zm824 314.3c-11.9 3.2-20.7 10.6-26.1 22.2-4.3 9.2-5.8 18.4-5.1 30.4 1.3 22.7 11.5 37.9 29 43.2 8.9 2.8 26.3 2.3 34.3-.8 5-1.9 5.1-1.9 6.3-.1.6 1 1.9 1.8 3 1.8 1.5 0 1.9-1.1 2.5-7.7.3-4.2.6-11.1.6-15.5V640h-2.8c-2.7 0-3 .4-4.1 5.2-3.2 14.2-12.2 20.7-26.9 19.5-11.3-.9-19.5-8.2-23.8-21.3-1.6-4.8-1.9-8.8-1.9-21.9 0-14 .3-16.8 2.3-22.5 4.9-14.2 15.2-20.7 28.6-17.8 6.9 1.4 12.5 7.1 15.6 15.5 1.9 5.3 2.6 6.3 4.6 6.3h2.4v-14.5c0-13.7-.1-14.5-1.9-14.5-1.1 0-2.6.9-3.4 2-1.3 1.9-1.4 1.9-6.7-.1-6.8-2.6-19.7-3.3-26.5-1.6zm642.5 0c-8.5 2.1-12.6 4.2-18.4 9.7-13.5 12.7-18.2 38.5-11 60.2 2.3 7.1 8.6 16 14 20 8 5.9 16 8.1 27.9 7.6 10.7-.4 14.2-1.6 22.8-7.9 2.2-1.6 5.1-2.9 6.4-2.9 2.3 0 2.3-.1 2.3-10.9 0-6 .3-11.6.6-12.5.3-.9 2.4-2.1 4.5-2.6 3.4-.9 3.9-1.4 3.9-4v-3h-37.1l.3 3.2c.2 2.7.8 3.4 2.8 3.6 1.4.1 4.2.7 6.2 1.2 4.6 1.3 5.2 3 4.6 13.4-.3 6.3-.7 7.9-2.8 10.2-3.6 3.8-8 5.4-15.5 5.4-10.8 0-17.5-4.3-22.7-14.4-6.7-13.1-7.5-37.6-1.7-53.1 4.2-11.2 11.5-16.5 22.9-16.5 11.2 0 17.2 4.1 21.5 14.6 1.9 4.8 2.9 6 4.9 6.2l2.6.3v-14c0-13-.1-14.1-1.8-14.1-1.1 0-2.6.8-3.6 1.8-1.6 1.8-1.8 1.8-7.2 0-7.3-2.4-19.4-3.1-26.4-1.5zM341 589.2V603h2.5c1.9 0 2.6-.6 3-2.8 1.5-7.3 2.8-10.6 5.5-13.5 2.8-3.2 2.9-3.2 13.5-3.5l10.6-.4-.3 37.9c-.3 40.7-.5 41.7-5.6 42.9-5.9 1.3-6.2 1.5-6.2 4.2v2.7h37v-2.7c0-2.4-.6-2.9-4.2-3.8-2.4-.6-4.9-1.9-5.5-2.8-1-1.2-1.3-10.8-1.3-39.9V583h8.5c5.2 0 9.9.6 12 1.4 3.7 1.6 6.8 6.5 7.9 12.8.6 3.4 1 3.8 3.8 3.8h3.1l-.7-9.2c-.3-5-.6-10.7-.6-12.7v-3.6h-83v13.7zM565 578c0 2.4.5 2.9 4.5 3.9 2.8.7 4.9 2 5.7 3.4 1 1.7 1.3 10.5 1.3 36.7 0 19-.3 35.8-.8 37.3-.8 2.8-2.7 4-7.9 5.1-2.2.5-2.8 1.2-2.8 3.4v2.7l23.6-.2c24.9-.2 30.5-.9 38.5-4.9 16.3-8.1 20-27.2 7.4-38.2-4.2-3.7-6.7-4.9-13.9-6.6l-4.9-1.2 5.6-3.2c6.6-3.7 10.4-8.9 11.3-15.2 1.5-11-4.4-19.3-16.3-23-5.9-1.9-9.7-2.2-29-2.5l-22.3-.3v2.8zm45.9 6.8c5.1 2.5 7.2 6 7.8 12.8.4 4.8 0 6.7-1.9 10.4-3.3 6.4-7.2 8.3-18 8.8l-8.8.4.2-16.8.3-16.8 2.5-.8c3.7-1.1 14 .1 17.9 2zm5.4 42.6c7.6 3.7 10.2 7.9 10.2 16.6 0 12.6-6.4 18.1-22 18.8-11.8.5-12.7-.1-13.6-9.9-.4-4.1-.8-12.3-.8-18.3l-.1-10.9 10.4.5c8.7.4 11.3.9 15.9 3.2zm53.5-23.1c-9.8 2.8-16.9 9.9-20.3 20.5-1.3 3.9-1.6 7.7-1.3 15.4.3 9.1.7 10.9 3.3 15.6 5.6 10.3 15.6 16.2 27.4 16.2 16.3 0 27.8-9.9 31.1-26.8 3.4-16.9-3.9-33.5-17.1-39.1-6.3-2.8-16.8-3.6-23.1-1.8zm18.9 8.5c1.7 1.2 4.2 4.3 5.5 7 2.1 4.2 2.3 6.1 2.3 18.2s-.3 14-2.4 18.2c-4.3 8.9-15 12.1-23.3 7s-12.2-23.1-8.4-38.2c2-7.7 3.6-10.4 7.9-13.1 4.4-2.7 13.9-2.3 18.4.9zm38.8-8.4c-5.9 2.2-11.2 8.3-12 14-1.7 11.2 2.1 16.4 17 23.5 11.4 5.5 15.5 9.3 15.5 14.6 0 6.3-8.7 10.7-16.8 8.6-4.8-1.3-7.8-4.5-10.1-10.7-1.3-3.5-2.5-5-4-5.2-2-.3-2.1 0-2.1 10.7 0 11.1 0 11.1 2.4 11.1 1.3 0 2.6-.4 2.8-1 .2-.5 2.5-.3 5.7.6 11.3 3.4 24.7-.1 29.7-7.6 2.9-4.4 4.1-12.4 2.5-17.2-1.7-5.2-6.1-8.7-18.4-14.8-9.7-4.8-11.4-6-13-9.2-3.2-6.6.5-11.8 8.4-11.8 6.1 0 10.2 3.3 12.6 10.1 1.4 3.9 2.2 4.9 4 4.9 2.2 0 2.3-.3 2.3-10 0-9.9 0-10-2.4-10-1.3 0-2.6.5-2.8 1.2-.3.7-1.2.6-3.1-.6-3.6-2.4-13.2-3-18.2-1.2zm114.3-.1c-13.9 4-21.7 15.6-22 32.5-.1 9.3.7 13.2 3.7 19.2 8.7 17 33.6 21.5 48.1 8.7 13.5-11.9 15.2-37.6 3.3-51.1-7.6-8.6-21.6-12.5-33.1-9.3zm18.9 8.5c1.7 1.2 4.2 4.3 5.5 7 2 4.2 2.3 6.1 2.3 17.7 0 12.1-.2 13.4-2.7 18.5-3.3 6.8-7.3 9.4-14.3 9.4-11.2 0-17.4-8.4-18.3-24.7-.7-14.5 2.5-24.7 9.3-28.9 4.2-2.6 13.8-2.1 18.2 1zm226.1-8.5c-13.9 4-21.7 15.6-22 32.5-.1 9.3.7 13.2 3.7 19.3 6.5 12.8 22.9 18.9 38.5 14.3 7.3-2.2 15.9-10.7 18.6-18.4 2.8-8 2.6-23.8-.3-30.2-3-6.6-9.5-13.2-15.4-15.8-6.3-2.7-16.8-3.4-23.1-1.7zm18.9 8.5c6.5 4.6 9.5 16.7 8.2 32-1.3 13.7-7.1 20.6-17.4 20.6-11.2 0-17.4-8.4-18.3-24.7-.7-14.5 2.5-24.7 9.3-28.9 4.2-2.6 13.8-2.1 18.2 1zm112.8-8.3c-8.1 2.9-13.4 11.9-12.1 20.7 1.1 7 5.1 11 17.2 16.7 12.4 6 15.4 8.8 15.4 14.2 0 4.8-2.4 7.4-8 8.9-8.6 2.3-15.5-1.5-18.8-10.3-1.4-3.7-2.6-5.3-4.1-5.5-2-.3-2.1 0-2.1 10.7 0 11.1 0 11.1 2.4 11.1 1.3 0 2.6-.4 2.8-1 .2-.6 2.3-.3 5.3.6 7.8 2.4 18.3 1.5 24.2-2.2 8.7-5.4 12.1-17.4 7.2-25.4-2.9-4.7-3.9-5.4-15.4-10.9-12.1-5.9-15.5-8.9-15.5-14.1 0-5.1 3.2-8 8.9-8 6.2 0 9.6 2.2 12.3 7.9 1.7 3.8 2.8 5 4.6 5.1 2.1 0 2.2-.3 2.2-9.5 0-9.4 0-9.5-2.4-9.5-1.3 0-2.6.4-2.8 1-.2.6-2.2.4-5.2-.5-6.1-1.8-10.9-1.8-16.1 0zm343.2-.4c-14.5 3.4-22.8 15.4-22.8 32.9 0 9.9.5 12.8 3.7 19 2.9 5.9 7.7 10.7 13.4 13.4 3.5 1.6 6.5 2.1 13.5 2.1 8.3 0 9.6-.3 17-3.7l8-3.7-.3-6.5c-.4-7.3.7-10.1 4.3-11 1.8-.5 2.5-1.3 2.5-3.1V641h-29v2.5c0 2.1.6 2.6 3.9 3.1 6 1 6.5 1.6 6.5 7.9-.2 7.5-2.9 10.6-10.3 11.3-13.3 1.2-21.3-12.3-19.7-33.2 1.1-15.3 6.8-22.6 17.4-22.6 7.2 0 10.7 2.2 13.9 8.7 1.7 3.6 3.1 5.3 4.4 5.3 1.7 0 1.9-.9 1.9-10 0-9-.2-10-1.8-10-1 0-2.2.4-2.7.9-.6.6-3.1.4-6.5-.5-6-1.6-11.5-1.7-17.3-.3zm237-.1c-9.8 2.5-17.7 9.6-21.2 19.1-1.5 4.1-2 7.9-2 15.4 0 8.7.3 10.7 2.6 15.5 5.1 10.7 14.1 16.9 25.8 17.8 16.3 1.1 28.2-7 32.7-22.3 2.4-8.4 1.6-22.3-1.6-28.9-4.9-10.3-14.3-16.4-25.9-17.1-3.6-.2-8.3 0-10.4.5zm16.4 8.3c1.8 1.2 4.3 3.7 5.5 5.4 4.5 6.6 5.6 24.3 2.3 35.3-2.8 9.3-11.1 14.4-19.8 12-9.8-2.6-14.2-11.1-14.2-27.2-.1-19.2 5.2-27.8 17.2-27.8 4.2 0 6.5.6 9 2.3z"></path><path d="M411 607.5c0 1.9.5 2.5 2.3 2.5 1.3 0 3.2.6 4.3 1.4 1.8 1.4 1.9 2.8 1.9 26.1s-.1 24.7-1.9 26.1c-1.1.8-3 1.4-4.3 1.4-1.8 0-2.3.5-2.3 2.7v2.8h30.1l-.3-2.5c-.2-1.9-1.1-2.6-3.7-3.1-1.8-.4-3.7-1.3-4.2-2.1-.5-.7-.9-6.1-.9-12.1V640h28v10.7c0 6-.4 11.4-.9 12.1-.5.8-2.4 1.7-4.2 2.1-2.6.5-3.5 1.2-3.7 3.1l-.3 2.5H481v-2.8c0-2.2-.5-2.7-2.3-2.7-1.3 0-3.2-.6-4.3-1.4-1.8-1.4-1.9-2.8-1.9-26.1s.1-24.7 1.9-26.1c1.1-.8 3-1.4 4.3-1.4 1.8 0 2.3-.6 2.3-2.5V605h-15.1c-14.9 0-15 0-14.7 2.2.2 1.4 1.3 2.4 3.1 2.9 5.3 1.4 5.7 2.4 5.7 13v9.9h-28v-9.5c0-10.5 1.4-13.5 6.5-13.5 2 0 2.5-.5 2.5-2.5V605h-30v2.5zm74.2-.3c.2 1.5 1.3 2.4 3.8 3.1 1.9.5 3.8 1.4 4.2 2 1.1 1.7 1 48.9-.1 50.5-.5.8-2.4 1.7-4.2 2.1-2.6.5-3.5 1.2-3.7 3.1l-.3 2.5H539v-10.3c0-10.1 0-10.2-2.4-10.2-1.8 0-2.5.7-3 2.7-1.3 5.6-3 8.4-5.7 9.8-3.7 2-18.2 2.1-19.7.2-.7-.7-1.4-6.4-1.8-12.5l-.7-11.2h4c4.4 0 6.9 2 7.5 6 .2 1.7 1 2.6 2.6 2.8 2.2.3 2.2.2 2.2-11.7 0-11.4-.1-12.1-2-12.1-1.3 0-2.2.9-2.6 2.7-1.1 4.5-3.3 6.3-7.6 6.3h-3.9l.3-10.8.3-10.7h8.1c9.4 0 11.6 1.3 13.6 7.7.9 3 1.6 3.8 3.5 3.8 2.2 0 2.3-.2 2.3-9v-9h-49.1l.3 2.2zM759 615c0 9.9 0 10 2.4 10 2.1 0 2.5-.6 3.1-4.1.4-2.2 1.7-5.2 3-6.7 1.9-2.2 3.2-2.7 8.9-3l6.6-.4v24.9c0 27.2-.3 28.9-5.8 29.5-2 .2-2.8.9-3 2.8l-.3 2.5H804v-2.8c0-2.2-.4-2.7-2.5-2.7-1.4 0-3.4-.9-4.5-2-1.9-1.9-2-3.3-2-27v-25h6.1c5.3 0 6.4.3 8.9 2.9 1.9 1.8 3.2 4.4 3.6 7 .6 3.5 1 4.1 3 4.1 2.4 0 2.4-.1 2.4-10v-10h-60v10zm126-7.5c0 1.9.5 2.5 2.3 2.5 1.3 0 3.2.6 4.3 1.4 1.8 1.4 1.9 2.8 1.9 25.6v24.2l-2.4 1.9c-1.3 1-3.2 1.9-4.2 1.9-1.4 0-1.9.7-1.9 2.7v2.8h29.1l-.3-2.5c-.2-2-1-2.6-4.2-3.1-7.2-1.2-7.6-2.4-7.6-25.2v-20l15 21.4c8.3 11.8 16.5 23.5 18.3 26.1 3 4.4 3.5 4.8 7.4 4.8h4.2l.3-29.1.3-29.1 2.4-1.9c1.3-1 3.2-1.9 4.2-1.9 1.4 0 1.9-.7 1.9-2.5V605h-29v2.5c0 2 .5 2.5 2.5 2.5 3.8 0 7.3 2 8.5 4.9.6 1.6.9 8.7.8 18.8l-.3 16.2-15.5-22.4-15.5-22.4-11.2-.1H885v2.5zm245 0c0 2 .5 2.5 2.5 2.5 1.4 0 3.4.9 4.6 2.1 2 2 2 2.9 1.7 25.4-.3 21-.5 23.5-2.2 25.3-1 1.2-2.8 2.2-4 2.4-1.4.2-2.2 1.1-2.4 2.8l-.3 2.5h29.2l-.3-2.4c-.2-2-1.2-2.6-4.8-3.5-6.7-1.6-7.1-3-6.8-25.5l.3-19 18 25.9 18 25.9 4.2.1h4.1l.4-28.3c.3-30.7.6-32.3 5.9-33.4 2.2-.4 2.9-1.1 2.9-2.9V605h-29v2.4c0 2 .6 2.4 4.1 2.9 7.2 1 7.4 1.4 7.7 22l.3 18.2-5.6-8c-3.1-4.4-10.2-14.6-15.8-22.8l-10.1-14.7H1130v2.5zm122-.1c0 1.9.7 2.5 3.4 3 1.9.4 3.7 1.4 4 2.2.3.9.6 9.3.6 18.8 0 26.4 2 33 11.7 37.7 4.1 2.1 6.3 2.4 15.3 2.4s11.1-.3 14.7-2.3c9.1-4.8 11.3-12.4 11.3-38.4 0-15.5.2-17 2-18.8 1.1-1.1 2.7-2 3.5-2 .9 0 1.5-.9 1.5-2.5V605h-27v2.4c0 1.9.6 2.4 3.8 3 7.2 1.1 7.7 2.4 8 23.5.3 20.5-.3 23.3-6.1 27.5-3.9 2.9-15.9 3-20 .2-5.3-3.6-5.7-5.7-5.7-27.8 0-11.2.4-20.8.8-21.5.4-.6 2.3-1.5 4.2-2 2.5-.7 3.6-1.6 3.8-3.1.3-2.2.2-2.2-14.7-2.2H1252v2.4zm71.2-.2c.2 1.6 1.2 2.4 3.6 2.9 1.9.4 3.9 1.2 4.5 1.8.9.9 1.2 8.5 1.2 25.6s-.3 24.7-1.2 25.6c-.6.6-2.6 1.4-4.5 1.8-2.6.5-3.3 1.2-3.3 2.9v2.3l25.8.2 25.7.2v-10.8c0-10.5-.1-10.7-2.3-10.7-1.9 0-2.4.8-3.5 5.2-1.8 7.7-3.7 9.2-12.6 9.6-12.3.7-11.6 2.3-11.6-26.2 0-26.9-.2-26.2 6.4-27.3 3-.5 3.6-1 3.6-2.9V605h-16.1c-16 0-16 0-15.7 2.2zm45.8 7.8c0 9.9 0 10 2.4 10 2 0 2.4-.6 3-4.1.4-2.6 1.7-5.2 3.6-7 2.5-2.6 3.6-2.9 8.9-2.9h6.1v24.8c0 27.1-.3 28.8-5.8 29.4-2 .2-2.8.9-3 2.8l-.3 2.5h30.2l-.3-2.5c-.2-1.9-1-2.6-3-2.8-5.5-.6-5.8-2.3-5.8-29.5v-24.9l6.6.4c5.7.3 7 .8 8.9 3 1.3 1.5 2.6 4.5 3 6.7.6 3.5 1 4.1 3.1 4.1 2.4 0 2.4-.1 2.4-10v-10h-60v10zm62.2-7.8c.2 1.5 1.4 2.4 4.3 3.2l4 1.2.3 25.4c.1 14.6-.2 25.8-.7 26.3-.5.5-2.4 1.2-4.3 1.6-2.5.5-3.4 1.2-3.6 3.1l-.3 2.5h31.2l-.3-2.5c-.2-1.8-1.1-2.6-3.4-3.1-1.7-.3-3.6-.9-4.2-1.3-1.4-.8-1.7-49.2-.4-51.3.4-.6 2.3-1.5 4.2-2 2.5-.7 3.6-1.6 3.8-3.1.3-2.2.2-2.2-15.3-2.2s-15.6 0-15.3 2.2zm34 0c.2 1.5 1.3 2.4 3.8 3.1 1.9.5 3.8 1.4 4.2 2 1.1 1.8 1 46.2-.2 49.1-.6 1.6-2.1 2.8-4.2 3.4-2.5.6-3.3 1.4-3.3 3.1 0 2.2.1 2.3 14.3 2.4l14.2.2v-2.8c0-2.3-.4-2.7-2.9-2.7-1.7 0-4.2-1-5.8-2.4l-2.8-2.4-.3-20.9-.4-20.8 18.8 26.7 18.7 26.8h8.7v-57.1l2.5-2.4c1.3-1.4 3.3-2.5 4.5-2.5 1.5 0 2-.6 2-2.5V605h-29v2.4c0 1.9.6 2.4 3.8 3 7.2 1.1 7.7 2.5 8 22.5.2 16.3.1 17.4-1.3 15.6-.9-1.1-8.1-11.3-16.1-22.8l-14.5-20.7h-11.5c-11.3 0-11.5 0-11.2 2.2zm245.8.3c0 2 .5 2.5 2.5 2.5 1.4 0 3.4.9 4.5 2 1.9 1.9 2 3.3 2 25.3 0 25.5-.4 27.3-5.8 27.9-2 .2-2.8.9-3 2.8l-.3 2.5h30.1v-2.8c0-2.2-.4-2.7-2.5-2.7-1.4 0-3.4-.9-4.5-2-1.8-1.8-2-3.3-2-13v-11l3.8.1c8.6.2 12.2 3.6 14.2 13.7 1.7 7.9 4.8 14.8 7.6 16.7 3.3 2.1 10.2 1.9 14.2-.5 3.8-2.4 4.9-4.5 3.2-6.5-1-1.2-1.5-1.2-3.6.2-3.3 2.1-5 .5-7-6.6-3.1-11.3-6.2-16.3-11.6-18.6l-2.9-1.2 4.2-1.3c8.8-3 13.4-10.9 11-19-2.6-8.8-9.7-11-35.3-11H1711v2.5zm38.7 6.8c2.2 2.2 2.8 3.7 2.8 7.1 0 8-5.6 12.3-16.2 12.5l-4.3.1v-23.2l7.5.4c6.6.3 7.8.7 10.2 3.1zm90.5-7.1c.2 1.5 1.3 2.4 3.8 3.1 1.9.5 3.8 1.4 4.2 2 .4.7.8 9.4.8 19.4 0 26.6 1.8 32.5 11.5 37.3 4.4 2.2 6.3 2.5 15.5 2.5 9.7 0 10.9-.2 15.2-2.7 3.5-2.1 5.2-4 7.1-8 2.4-5 2.6-6.5 3-26 .3-18.3.6-21 2.2-22.8 1-1.1 2.6-2 3.7-2 1.3 0 1.8-.7 1.8-2.5V605h-27v2.4c0 1.9.6 2.4 3.8 3 7.4 1.1 7.7 2.2 7.7 24.6 0 18.5-.1 20-2.1 22.7-2.9 3.9-8 6.3-13.7 6.3-6.4 0-11.2-2.2-13.7-6.2-1.9-3.1-2-4.7-1.8-24.8l.3-21.5 3.8-.9c2.9-.8 3.7-1.4 3.7-3.3V605h-15.1c-14.9 0-15 0-14.7 2.2zm72 0c.2 1.5 1.3 2.4 3.8 3.1 1.9.5 3.8 1.4 4.2 2 1.1 1.7 1 48.9-.1 50.5-.5.8-2.4 1.7-4.2 2.1-2.6.5-3.5 1.2-3.7 3.1l-.3 2.5h32.1v-2.6c0-2.3-.5-2.7-4.1-3.2-2.3-.3-4.5-.9-5-1.4-.5-.5-1.2-5-1.5-9.9l-.7-9.1 8.8-.7c10.3-.7 17.3-3.4 21.5-8.2 3.4-3.9 4.4-8.4 3.8-15.6-.5-4.3-1.1-5.7-4.1-8.4-5.7-5.3-11.4-6.4-32.5-6.4-18.3 0-18.3 0-18 2.2zm35.3 5.2c5.9 2.5 8.2 10.6 5.1 18.1-1.8 4.2-5.5 6.2-13.4 7.1l-6.2.7v-13c0-7.1.3-13.3.7-13.6 1.2-1.2 10.3-.7 13.8.7z"></path></svg> 