<?xml version="1.0" encoding="UTF-8"?> <svg xmlns="http://www.w3.org/2000/svg" version="1.0" width="2666.667" height="424" viewBox="0 0 2000 318"><path d="M95.4 1.5C51.3 8 18.2 29.5 5.7 60 1.4 70.3 0 78.3 0 92c0 32.5 13.9 57.2 42.9 76.5 11.3 7.4 22.8 13 52.1 25.4 38.7 16.2 43.1 18.4 47.9 23.2 12.2 12.1 8.3 30-8.2 37.8-8.2 3.8-14.8 5.1-29.2 5.8-16.7.8-36.3-1.3-59.3-6.2-8.2-1.7-29.3-7.5-36-9.9L6 243.1v63.6l9.3 2.2c30.6 7.3 54 9.5 92.8 8.8 24.6-.4 31-.8 39.2-2.5 22.7-4.8 38.8-11.5 54-22.3 23.3-16.6 35.4-38.3 37.3-66.9 1.7-25.3-7.4-47.3-27.4-66.1-14.2-13.4-27.9-21.1-87.2-49.4-11.3-5.4-21.6-10.5-23-11.4C83.3 88 81.4 74.2 96.1 63.4c8.5-6.2 17.2-8.6 33.2-9.2 15.3-.5 26 .6 43.6 4.5 9.1 2 33 9 40.7 12 1.2.4 1.4-4.2 1.2-29.8l-.3-30.2-5.5-1.3c-9.1-2.1-35.6-6.3-50-7.9-16.5-1.8-50.9-1.8-63.6 0zM1863.5.7c-20 2.6-38.2 7.6-50.7 13.9-32.3 16.2-49.4 40-51.4 71.5-2.3 33.7 13 62.9 43.3 82.6 11.3 7.4 19.4 11.3 52.3 25.2 15.7 6.6 32.2 13.9 36.7 16.2 16.7 8.3 21.9 19.7 15.2 33.6-5.9 12.3-25 18.2-54.5 17-26.7-1.2-48.7-5.5-84.6-16.7l-2.8-.9v63.6l14.8 3.2c29.5 6.4 46.2 8.1 81.1 8.1 33.7 0 48.4-2 68.5-8.9 37.6-13.1 62.3-39.4 67.6-72.3 1.6-9.7.8-30.2-1.4-38.3-4-14.4-15.6-31.6-28.5-42.1-15.1-12.4-20.1-15.1-94.7-51.5-13.7-6.7-16.9-8.7-20.8-13-9.2-10.2-7.1-20.9 5.8-29.6 8-5.4 16.2-7.5 32.1-8 21.6-.8 47.2 3.7 72.9 12.8 6.1 2.1 11.4 3.9 11.9 3.9.4 0 .6-13.6.5-30.2l-.3-30.2-6-1.3c-13.4-2.7-36.8-6.4-50.4-7.8-12.9-1.4-48.5-1.9-56.6-.8zM279 159v154h92V5h-92v154zm161 0v154h227v-60H529v-71h118v-52H529V63h136V5H440v154zm277 0v154h62l.2-100.1.3-100.1 42 101.6 42 101.6h53.2l1.3-2.8c.7-1.5 4.1-9.2 7.5-17.2 3.4-8 14.5-33.9 24.7-57.5 10.2-23.7 26.3-61.2 35.9-83.5l17.4-40.5.3 99.3.2 99.2h86.5V5l-53.4.2-53.4.3-38.9 92c-21.4 50.6-39.3 92.4-39.7 92.8-.5.5-1.8-1.5-2.9-4.5-1.2-2.9-6.5-16.3-12-29.8-18.9-46.5-41.5-102.6-51.2-126.5l-9.7-24-56.1-.3L717 5v154zm443 0v154h227v-60h-138v-71h118v-52h-118V63h135V5h-224v154zM1436.7 5.7c-.4.3-.7 69.6-.7 154V313h63v-97.2c0-82 .2-96.9 1.4-95.3.7 1.1 6.6 11.7 13.1 23.5 13.6 24.7 22.8 41.5 38 69 12.2 22.1 25.7 46.5 43.1 78.2l11.9 21.8h97.5V5h-62l-.2 95.7-.3 95.8-10.6-19.5c-11.5-21.1-31.4-57.4-35.9-65.5-1.5-2.8-8.4-15.4-15.2-28-6.9-12.7-16.3-29.8-20.8-38-4.5-8.3-9.5-17.3-11-20-1.5-2.8-4.6-8.5-6.9-12.8l-4.2-7.7h-49.8c-27.4 0-50.1.3-50.4.7z"></path></svg> 