<?xml version="1.0" encoding="UTF-8"?> <svg xmlns="http://www.w3.org/2000/svg" version="1.0" width="2666.667" height="3441.333" viewBox="0 0 2000 2581"><path d="M933.5.7C767.7 7.2 649.9 21.6 489.6 55c-5.4 1.1-19.8 4.3-32 7.1-100.1 23.1-200.3 52.6-296.1 87.4-34.5 12.5-70.6 26.3-71.7 27.3-1.6 1.6 26.2 60.9 43.3 92.6 3.9 7.2 7.3 13.2 7.4 13.4.1.1 5.6-2.1 12.1-4.9 168.9-72.6 351.8-123 537.3-147.9 60.5-8.1 116-13.2 188.6-17.2 31.8-1.8 206.8-1.8 240.5 0 154.2 8.1 287.9 28 427.5 63.7 102.7 26.2 209.1 62.5 302 102.9 4.3 1.9 8.3 3.3 8.7 3 1.2-.8 20.5-37.5 30.8-58.7 9.5-19.4 20-43.7 20-46.1 0-1.9-69.5-27.9-123-46.1C1553 53 1320.1 10.3 1074 1 1050.9.1 953.1-.1 933.5.7z"></path><path d="M788.5 176.6c-2.2.2-10.7.8-19 1.4-126.8 9.2-273.9 37.3-400.5 76.5-67.1 20.9-139.3 48.1-190.3 71.9l-9.8 4.5 3.9 5.8c34.8 51.3 97.7 105 168.7 144 23.2 12.8 68.5 34.3 72.1 34.3.6 0 2-5.7 3.1-12.8 5-29.9 15.7-52 33.5-68.7 30.8-29 81.6-43.6 173.3-50 24-1.6 77.9-3.5 102.7-3.5 14.1 0 15.7.2 16.1 1.7.3 1 58.1 323 128.4 715.5 70.3 392.6 128.1 713.4 128.4 713 .3-.4 57.7-321.9 127.5-714.5s127.1-714.3 127.5-714.9c.7-1.2 82.1.5 110.9 2.2 56.1 3.5 96 9.8 127 20 45 14.8 70.5 37.7 82.8 74.6 3.2 9.4 7.2 28.2 7.2 33.5 0 1.6.6 3.2 1.3 3.5 2.1.8 24-8.8 49.2-21.6 44.2-22.3 83.9-48.1 118.5-77.1 15.2-12.6 42.7-39.9 53.7-53.1 9.3-11.2 23.3-30.1 23.3-31.5 0-.6-1.7-1.7-3.7-2.6-2.1-.8-12.6-5.4-23.3-10.2-149.9-66.6-338.2-115.8-518-135.4-36.8-4.1-84.3-7.6-93.3-6.9l-4.7.3-92.8 113c-51 62.1-93.1 112.8-93.7 112.7-.5-.2-42.6-51-93.5-113l-92.5-112.7-10-.1c-5.5-.1-11.8 0-14 .2zM.3 2326.7c.9 5.6 7.1 17.4 12.8 24.6 6.8 8.5 14.9 15 24.8 20l8.4 4.2 44.1.5c24.3.3 44.9.9 45.9 1.4 1.6.8 1.7 6.6 1.7 102.2V2581h52v-203l2.6-1c1.5-.6 19.6-1 44.2-1 41.6 0 41.7-.1 47.5-2.4 19.2-7.9 35.3-24.6 41.7-43 1.1-3.3 2-6.3 2-6.8 0-.4-73.9-.8-164.1-.8H-.3l.6 3.7zm451.1-.5c1 5 6.1 15.4 11 22.2 8.3 11.6 20.3 20.9 32.6 25.3l6.5 2.3h99.1c96.1 0 99.3-.1 104.8-2 3.2-1.1 8.3-3.4 11.4-5.2 7.4-4.1 20.9-17.7 25.4-25.4 3.6-6.2 7.8-16.4 7.8-18.9 0-1.3-19-1.5-149.6-1.5H450.8l.6 3.2zm1247.1-1c6.7 22.3 22.3 39.8 43.2 48.4l5.8 2.4h100.1c97.1 0 100.3-.1 105.8-2 17.7-6.1 32.9-20.8 41.3-40 1.8-4.1 3.3-8.3 3.3-9.3 0-1.6-7.8-1.7-150.1-1.7h-150l.6 2.2zM895 2401v77h232v53h-91c-90.4 0-91 0-97.2 2.1-14.7 5.1-28.3 13.4-39.6 24.3-6.6 6.4-17.2 20.3-17.2 22.7 0 .5 59 .9 148 .9h148v-155H946v-50h88.8c84.2 0 89.2-.1 94.3-1.9 21-7.2 39.7-23.1 47.4-40.4 1.3-2.9 2.6-6.2 3-7.5l.6-2.2H895v77zm426 51.5V2581h241.2l6.9-4.5c12.6-8.4 22.7-21.8 28-37.2 1-3.1 1.9-6 1.9-6.5 0-.4-50.8-.8-113-.8h-113v-208h-52v128.5zm-869.6-23.3c.3 1.8 2.4 6.8 4.5 11.3 8.6 17.6 24.7 31.7 42 36.9 4.9 1.4 16.2 1.6 102.6 1.6 107.7 0 101.2.4 114.7-6.7 12.3-6.4 24.1-19.3 30.8-33.4 1.6-3.5 3.2-7.9 3.6-9.7l.7-3.2H450.8l.6 3.2zm1254.6 74.3v77.5h52v-101h182v101h51v-153.7l-32.2-.6c-17.8-.4-81.9-.7-142.5-.7H1706v77.5zm-1254.6 30.7c.3 1.8 2.7 7.6 5.3 12.8 3.9 8 6 10.9 13.7 18.5 5.7 5.7 11.4 10.2 15.2 12.3l6.2 3.2h217.3l4.2-2.1c14.4-7.4 27.2-21.2 33.9-36.9 1.5-3.6 2.8-7.5 2.8-8.8v-2.2H450.8l.6 3.2z"></path></svg> 