<?xml version="1.0" encoding="UTF-8"?> <svg xmlns="http://www.w3.org/2000/svg" version="1.0" width="991" height="768" viewBox="-21.99 -21.99 1002.98 776.98"><path d="M959 0v733H0V0h959"></path><path d="M718 86s-41-53-85-53c0 0-51 0-96 64 0 0-44 61-74 170 0 0-31-109-75-170 0 0-45-64-95-64 0 0-45 0-86 53 0 0-39 52-69 146 0 0-64 199-64 480h97s0-261 36-446c0 0 16-87 38-135 0 0 23-49 48-49 0 0 24 0 47 45 0 0 22 45 38 125 0 0 36 171 36 412h97s0-241 36-412c0 0 17-80 38-125 0 0 23-45 48-45 0 0 24 0 47 49 0 0 22 48 39 135 0 0 35 185 35 446h97s0-281-64-480c0 0-30-94-69-146m184.008 555.009c-10 0-17 7-17 7-8 7-8 17-8 17 0 11 8 18 8 18 7 8 17 8 17 8 11 0 18-8 18-8 7-7 7-18 7-18 0-10-7-17-7-17-7-7-18-7-18-7zm-.375 3c.23-.012.375 0 .375 0 9 0 15 6 15 6 6 6 6 15 6 15l-6 16c-6 6-15 6-15 6l-14-6c-6-6-6-16-6-16 0-9 6-15 6-15 5.25-5.25 12.011-5.918 13.625-6z" fill="#ffebe1"></path><path d="M893.008 651.009v29h4v-12h5l8 12h5l-9-13c8 0 8-8 8-8 0-8-10-8-10-8h-11zm4 4h6c6 0 6 4 6 4l-2 4-5 1h-5v-9z" fill="#ffebe1"></path></svg> 